<svg width="1040" height="1040" viewBox="0 0 80 80" shape-rendering="crispEdges" xmlns="http://www.w3.org/2000/svg" role="img" aria-label="amenbo water strider pixel art"><rect x="0" y="0" width="80" height="1" fill="#E9F6FB"/><rect x="0" y="1" width="80" height="1" fill="#E9F6FB"/><rect x="0" y="2" width="80" height="1" fill="#E9F6FB"/><rect x="0" y="3" width="80" height="1" fill="#E9F6FB"/><rect x="0" y="4" width="80" height="1" fill="#E9F6FB"/><rect x="0" y="5" width="80" height="1" fill="#E9F6FB"/><rect x="0" y="6" width="80" height="1" fill="#E9F6FB"/><rect x="0" y="7" width="80" height="1" fill="#D3EEF8"/><rect x="0" y="8" width="80" height="1" fill="#D3EEF8"/><rect x="0" y="9" width="80" height="1" fill="#D3EEF8"/><rect x="0" y="10" width="80" height="1" fill="#D3EEF8"/><rect x="0" y="11" width="80" height="1" fill="#D3EEF8"/><rect x="0" y="12" width="80" height="1" fill="#D3EEF8"/><rect x="0" y="13" width="80" height="1" fill="#D3EEF8"/><rect x="0" y="14" width="80" height="1" fill="#D3EEF8"/><rect x="0" y="15" width="80" height="1" fill="#D3EEF8"/><rect x="0" y="16" width="80" height="1" fill="#D3EEF8"/><rect x="0" y="17" width="27" height="1" fill="#D3EEF8"/><rect x="27" y="17" width="1" height="1" fill="#23404B"/><rect x="28" y="17" width="52" height="1" fill="#D3EEF8"/><rect x="0" y="18" width="17" height="1" fill="#D3EEF8"/><rect x="17" y="18" width="1" height="1" fill="#23404B"/><rect x="18" y="18" width="9" height="1" fill="#D3EEF8"/><rect x="27" y="18" width="1" height="1" fill="#23404B"/><rect x="28" y="18" width="52" height="1" fill="#D3EEF8"/><rect x="0" y="19" width="18" height="1" fill="#D3EEF8"/><rect x="18" y="19" width="1" height="1" fill="#23404B"/><rect x="19" y="19" width="8" height="1" fill="#D3EEF8"/><rect x="27" y="19" width="1" height="1" fill="#23404B"/><rect x="28" y="19" width="52" height="1" fill="#D3EEF8"/><rect x="0" y="20" width="18" height="1" fill="#D3EEF8"/><rect x="18" y="20" width="2" height="1" fill="#23404B"/><rect x="20" y="20" width="7" height="1" fill="#D3EEF8"/><rect x="27" y="20" width="1" height="1" fill="#23404B"/><rect x="28" y="20" width="52" height="1" fill="#D3EEF8"/><rect x="0" y="21" width="19" height="1" fill="#D3EEF8"/><rect x="19" y="21" width="1" height="1" fill="#23404B"/><rect x="20" y="21" width="7" height="1" fill="#D3EEF8"/><rect x="27" y="21" width="1" height="1" fill="#23404B"/><rect x="28" y="21" width="52" height="1" fill="#D3EEF8"/><rect x="0" y="22" width="19" height="1" fill="#D3EEF8"/><rect x="19" y="22" width="2" height="1" fill="#23404B"/><rect x="21" y="22" width="6" height="1" fill="#D3EEF8"/><rect x="27" y="22" width="1" height="1" fill="#23404B"/><rect x="28" y="22" width="52" height="1" fill="#D3EEF8"/><rect x="0" y="23" width="20" height="1" fill="#D3EEF8"/><rect x="20" y="23" width="2" height="1" fill="#23404B"/><rect x="22" y="23" width="5" height="1" fill="#D3EEF8"/><rect x="27" y="23" width="2" height="1" fill="#23404B"/><rect x="29" y="23" width="51" height="1" fill="#D3EEF8"/><rect x="0" y="24" width="21" height="1" fill="#D3EEF8"/><rect x="21" y="24" width="1" height="1" fill="#23404B"/><rect x="22" y="24" width="6" height="1" fill="#D3EEF8"/><rect x="28" y="24" width="1" height="1" fill="#23404B"/><rect x="29" y="24" width="51" height="1" fill="#D3EEF8"/><rect x="0" y="25" width="21" height="1" fill="#D3EEF8"/><rect x="21" y="25" width="2" height="1" fill="#23404B"/><rect x="23" y="25" width="5" height="1" fill="#D3EEF8"/><rect x="28" y="25" width="1" height="1" fill="#23404B"/><rect x="29" y="25" width="51" height="1" fill="#D3EEF8"/><rect x="0" y="26" width="22" height="1" fill="#D3EEF8"/><rect x="22" y="26" width="2" height="1" fill="#23404B"/><rect x="24" y="26" width="4" height="1" fill="#D3EEF8"/><rect x="28" y="26" width="1" height="1" fill="#23404B"/><rect x="29" y="26" width="51" height="1" fill="#D3EEF8"/><rect x="0" y="27" width="23" height="1" fill="#D3EEF8"/><rect x="23" y="27" width="1" height="1" fill="#23404B"/><rect x="24" y="27" width="2" height="1" fill="#D3EEF8"/><rect x="26" y="27" width="1" height="1" fill="#23404B"/><rect x="27" y="27" width="1" height="1" fill="#D3EEF8"/><rect x="28" y="27" width="2" height="1" fill="#23404B"/><rect x="30" y="27" width="50" height="1" fill="#D3EEF8"/><rect x="0" y="28" width="23" height="1" fill="#D3EEF8"/><rect x="23" y="28" width="7" height="1" fill="#23404B"/><rect x="30" y="28" width="8" height="1" fill="#D3EEF8"/><rect x="38" y="28" width="1" height="1" fill="#23404B"/><rect x="39" y="28" width="14" height="1" fill="#D3EEF8"/><rect x="53" y="28" width="3" height="1" fill="#23404B"/><rect x="56" y="28" width="24" height="1" fill="#D3EEF8"/><rect x="0" y="29" width="22" height="1" fill="#D3EEF8"/><rect x="22" y="29" width="9" height="1" fill="#23404B"/><rect x="31" y="29" width="4" height="1" fill="#D3EEF8"/><rect x="35" y="29" width="7" height="1" fill="#23404B"/><rect x="42" y="29" width="5" height="1" fill="#D3EEF8"/><rect x="47" y="29" width="9" height="1" fill="#23404B"/><rect x="56" y="29" width="1" height="1" fill="#3C6B7D"/><rect x="57" y="29" width="5" height="1" fill="#23404B"/><rect x="62" y="29" width="18" height="1" fill="#D3EEF8"/><rect x="0" y="30" width="21" height="1" fill="#D3EEF8"/><rect x="21" y="30" width="11" height="1" fill="#23404B"/><rect x="32" y="30" width="2" height="1" fill="#D3EEF8"/><rect x="34" y="30" width="9" height="1" fill="#23404B"/><rect x="43" y="30" width="2" height="1" fill="#D3EEF8"/><rect x="45" y="30" width="6" height="1" fill="#23404B"/><rect x="51" y="30" width="11" height="1" fill="#3C6B7D"/><rect x="62" y="30" width="2" height="1" fill="#23404B"/><rect x="64" y="30" width="16" height="1" fill="#D3EEF8"/><rect x="0" y="31" width="21" height="1" fill="#D3EEF8"/><rect x="21" y="31" width="11" height="1" fill="#23404B"/><rect x="32" y="31" width="2" height="1" fill="#D3EEF8"/><rect x="34" y="31" width="16" height="1" fill="#23404B"/><rect x="50" y="31" width="13" height="1" fill="#3C6B7D"/><rect x="63" y="31" width="3" height="1" fill="#23404B"/><rect x="66" y="31" width="14" height="1" fill="#D3EEF8"/><rect x="0" y="32" width="21" height="1" fill="#D3EEF8"/><rect x="21" y="32" width="30" height="1" fill="#23404B"/><rect x="51" y="32" width="11" height="1" fill="#3C6B7D"/><rect x="62" y="32" width="4" height="1" fill="#23404B"/><rect x="66" y="32" width="14" height="1" fill="#D3EEF8"/><rect x="0" y="33" width="20" height="1" fill="#D3EEF8"/><rect x="20" y="33" width="36" height="1" fill="#23404B"/><rect x="56" y="33" width="1" height="1" fill="#3C6B7D"/><rect x="57" y="33" width="10" height="1" fill="#23404B"/><rect x="67" y="33" width="13" height="1" fill="#D3EEF8"/><rect x="0" y="34" width="21" height="1" fill="#D3EEF8"/><rect x="21" y="34" width="45" height="1" fill="#23404B"/><rect x="66" y="34" width="14" height="1" fill="#D3EEF8"/><rect x="0" y="35" width="21" height="1" fill="#D3EEF8"/><rect x="21" y="35" width="11" height="1" fill="#23404B"/><rect x="32" y="35" width="2" height="1" fill="#D3EEF8"/><rect x="34" y="35" width="32" height="1" fill="#23404B"/><rect x="66" y="35" width="14" height="1" fill="#D3EEF8"/><rect x="0" y="36" width="21" height="1" fill="#D3EEF8"/><rect x="21" y="36" width="11" height="1" fill="#23404B"/><rect x="32" y="36" width="2" height="1" fill="#D3EEF8"/><rect x="34" y="36" width="9" height="1" fill="#23404B"/><rect x="43" y="36" width="2" height="1" fill="#D3EEF8"/><rect x="45" y="36" width="19" height="1" fill="#23404B"/><rect x="64" y="36" width="16" height="1" fill="#D3EEF8"/><rect x="0" y="37" width="22" height="1" fill="#D3EEF8"/><rect x="22" y="37" width="9" height="1" fill="#23404B"/><rect x="31" y="37" width="4" height="1" fill="#D3EEF8"/><rect x="35" y="37" width="7" height="1" fill="#23404B"/><rect x="42" y="37" width="5" height="1" fill="#D3EEF8"/><rect x="47" y="37" width="15" height="1" fill="#23404B"/><rect x="62" y="37" width="18" height="1" fill="#D3EEF8"/><rect x="0" y="38" width="23" height="1" fill="#D3EEF8"/><rect x="23" y="38" width="7" height="1" fill="#23404B"/><rect x="30" y="38" width="8" height="1" fill="#D3EEF8"/><rect x="38" y="38" width="1" height="1" fill="#23404B"/><rect x="39" y="38" width="14" height="1" fill="#D3EEF8"/><rect x="53" y="38" width="3" height="1" fill="#23404B"/><rect x="56" y="38" width="24" height="1" fill="#D3EEF8"/><rect x="0" y="39" width="23" height="1" fill="#D3EEF8"/><rect x="23" y="39" width="2" height="1" fill="#23404B"/><rect x="25" y="39" width="1" height="1" fill="#D3EEF8"/><rect x="26" y="39" width="1" height="1" fill="#23404B"/><rect x="27" y="39" width="1" height="1" fill="#D3EEF8"/><rect x="28" y="39" width="1" height="1" fill="#23404B"/><rect x="29" y="39" width="7" height="1" fill="#D3EEF8"/><rect x="36" y="39" width="1" height="1" fill="#23404B"/><rect x="37" y="39" width="9" height="1" fill="#D3EEF8"/><rect x="46" y="39" width="1" height="1" fill="#23404B"/><rect x="47" y="39" width="5" height="1" fill="#D3EEF8"/><rect x="52" y="39" width="1" height="1" fill="#23404B"/><rect x="53" y="39" width="5" height="1" fill="#D3EEF8"/><rect x="58" y="39" width="1" height="1" fill="#23404B"/><rect x="59" y="39" width="21" height="1" fill="#D3EEF8"/><rect x="0" y="40" width="22" height="1" fill="#D3EEF8"/><rect x="22" y="40" width="2" height="1" fill="#23404B"/><rect x="24" y="40" width="3" height="1" fill="#D3EEF8"/><rect x="27" y="40" width="2" height="1" fill="#23404B"/><rect x="29" y="40" width="6" height="1" fill="#D3EEF8"/><rect x="35" y="40" width="2" height="1" fill="#23404B"/><rect x="37" y="40" width="9" height="1" fill="#D3EEF8"/><rect x="46" y="40" width="1" height="1" fill="#23404B"/><rect x="47" y="40" width="5" height="1" fill="#D3EEF8"/><rect x="52" y="40" width="2" height="1" fill="#23404B"/><rect x="54" y="40" width="4" height="1" fill="#D3EEF8"/><rect x="58" y="40" width="2" height="1" fill="#23404B"/><rect x="60" y="40" width="20" height="1" fill="#D3EEF8"/><rect x="0" y="41" width="21" height="1" fill="#D3EEF8"/><rect x="21" y="41" width="2" height="1" fill="#23404B"/><rect x="23" y="41" width="3" height="1" fill="#D3EEF8"/><rect x="26" y="41" width="2" height="1" fill="#23404B"/><rect x="28" y="41" width="7" height="1" fill="#D3EEF8"/><rect x="35" y="41" width="1" height="1" fill="#23404B"/><rect x="36" y="41" width="10" height="1" fill="#D3EEF8"/><rect x="46" y="41" width="1" height="1" fill="#23404B"/><rect x="47" y="41" width="6" height="1" fill="#D3EEF8"/><rect x="53" y="41" width="2" height="1" fill="#23404B"/><rect x="55" y="41" width="4" height="1" fill="#D3EEF8"/><rect x="59" y="41" width="3" height="1" fill="#23404B"/><rect x="62" y="41" width="18" height="1" fill="#D3EEF8"/><rect x="0" y="42" width="20" height="1" fill="#D3EEF8"/><rect x="20" y="42" width="2" height="1" fill="#23404B"/><rect x="22" y="42" width="3" height="1" fill="#D3EEF8"/><rect x="25" y="42" width="2" height="1" fill="#23404B"/><rect x="27" y="42" width="7" height="1" fill="#D3EEF8"/><rect x="34" y="42" width="2" height="1" fill="#23404B"/><rect x="36" y="42" width="9" height="1" fill="#D3EEF8"/><rect x="45" y="42" width="2" height="1" fill="#23404B"/><rect x="47" y="42" width="7" height="1" fill="#D3EEF8"/><rect x="54" y="42" width="2" height="1" fill="#23404B"/><rect x="56" y="42" width="4" height="1" fill="#D3EEF8"/><rect x="60" y="42" width="3" height="1" fill="#23404B"/><rect x="63" y="42" width="17" height="1" fill="#D3EEF8"/><rect x="0" y="43" width="19" height="1" fill="#D3EEF8"/><rect x="19" y="43" width="2" height="1" fill="#23404B"/><rect x="21" y="43" width="4" height="1" fill="#D3EEF8"/><rect x="25" y="43" width="1" height="1" fill="#23404B"/><rect x="26" y="43" width="7" height="1" fill="#D3EEF8"/><rect x="33" y="43" width="2" height="1" fill="#23404B"/><rect x="35" y="43" width="10" height="1" fill="#D3EEF8"/><rect x="45" y="43" width="1" height="1" fill="#23404B"/><rect x="46" y="43" width="9" height="1" fill="#D3EEF8"/><rect x="55" y="43" width="1" height="1" fill="#23404B"/><rect x="56" y="43" width="6" height="1" fill="#D3EEF8"/><rect x="62" y="43" width="2" height="1" fill="#23404B"/><rect x="64" y="43" width="16" height="1" fill="#D3EEF8"/><rect x="0" y="44" width="18" height="1" fill="#D3EEF8"/><rect x="18" y="44" width="2" height="1" fill="#23404B"/><rect x="20" y="44" width="4" height="1" fill="#D3EEF8"/><rect x="24" y="44" width="2" height="1" fill="#23404B"/><rect x="26" y="44" width="7" height="1" fill="#D3EEF8"/><rect x="33" y="44" width="1" height="1" fill="#23404B"/><rect x="34" y="44" width="11" height="1" fill="#D3EEF8"/><rect x="45" y="44" width="1" height="1" fill="#23404B"/><rect x="46" y="44" width="9" height="1" fill="#D3EEF8"/><rect x="55" y="44" width="2" height="1" fill="#23404B"/><rect x="57" y="44" width="6" height="1" fill="#D3EEF8"/><rect x="63" y="44" width="3" height="1" fill="#23404B"/><rect x="66" y="44" width="14" height="1" fill="#D3EEF8"/><rect x="0" y="45" width="16" height="1" fill="#D3EEF8"/><rect x="16" y="45" width="3" height="1" fill="#23404B"/><rect x="19" y="45" width="4" height="1" fill="#D3EEF8"/><rect x="23" y="45" width="2" height="1" fill="#23404B"/><rect x="25" y="45" width="7" height="1" fill="#D3EEF8"/><rect x="32" y="45" width="2" height="1" fill="#23404B"/><rect x="34" y="45" width="11" height="1" fill="#D3EEF8"/><rect x="45" y="45" width="1" height="1" fill="#23404B"/><rect x="46" y="45" width="10" height="1" fill="#D3EEF8"/><rect x="56" y="45" width="2" height="1" fill="#23404B"/><rect x="58" y="45" width="6" height="1" fill="#D3EEF8"/><rect x="64" y="45" width="3" height="1" fill="#23404B"/><rect x="67" y="45" width="13" height="1" fill="#D3EEF8"/><rect x="0" y="46" width="14" height="1" fill="#D3EEF8"/><rect x="14" y="46" width="4" height="1" fill="#23404B"/><rect x="18" y="46" width="4" height="1" fill="#D3EEF8"/><rect x="22" y="46" width="2" height="1" fill="#23404B"/><rect x="24" y="46" width="8" height="1" fill="#D3EEF8"/><rect x="32" y="46" width="1" height="1" fill="#23404B"/><rect x="33" y="46" width="12" height="1" fill="#D3EEF8"/><rect x="45" y="46" width="1" height="1" fill="#23404B"/><rect x="46" y="46" width="11" height="1" fill="#D3EEF8"/><rect x="57" y="46" width="1" height="1" fill="#23404B"/><rect x="58" y="46" width="8" height="1" fill="#D3EEF8"/><rect x="66" y="46" width="2" height="1" fill="#23404B"/><rect x="68" y="46" width="12" height="1" fill="#D3EEF8"/><rect x="0" y="47" width="13" height="1" fill="#D3EEF8"/><rect x="13" y="47" width="3" height="1" fill="#23404B"/><rect x="16" y="47" width="5" height="1" fill="#D3EEF8"/><rect x="21" y="47" width="2" height="1" fill="#23404B"/><rect x="23" y="47" width="8" height="1" fill="#D3EEF8"/><rect x="31" y="47" width="2" height="1" fill="#23404B"/><rect x="33" y="47" width="12" height="1" fill="#D3EEF8"/><rect x="45" y="47" width="1" height="1" fill="#23404B"/><rect x="46" y="47" width="11" height="1" fill="#D3EEF8"/><rect x="57" y="47" width="1" height="1" fill="#23404B"/><rect x="58" y="47" width="9" height="1" fill="#D3EEF8"/><rect x="67" y="47" width="2" height="1" fill="#23404B"/><rect x="69" y="47" width="11" height="1" fill="#D3EEF8"/><rect x="0" y="48" width="11" height="1" fill="#D3EEF8"/><rect x="11" y="48" width="3" height="1" fill="#23404B"/><rect x="14" y="48" width="6" height="1" fill="#D3EEF8"/><rect x="20" y="48" width="2" height="1" fill="#23404B"/><rect x="22" y="48" width="9" height="1" fill="#D3EEF8"/><rect x="31" y="48" width="1" height="1" fill="#23404B"/><rect x="32" y="48" width="12" height="1" fill="#D3EEF8"/><rect x="44" y="48" width="2" height="1" fill="#23404B"/><rect x="46" y="48" width="11" height="1" fill="#D3EEF8"/><rect x="57" y="48" width="2" height="1" fill="#23404B"/><rect x="59" y="48" width="9" height="1" fill="#D3EEF8"/><rect x="68" y="48" width="1" height="1" fill="#23404B"/><rect x="69" y="48" width="11" height="1" fill="#D3EEF8"/><rect x="0" y="49" width="9" height="1" fill="#D3EEF8"/><rect x="9" y="49" width="4" height="1" fill="#23404B"/><rect x="13" y="49" width="6" height="1" fill="#D3EEF8"/><rect x="19" y="49" width="2" height="1" fill="#23404B"/><rect x="21" y="49" width="9" height="1" fill="#D3EEF8"/><rect x="30" y="49" width="2" height="1" fill="#23404B"/><rect x="32" y="49" width="12" height="1" fill="#D3EEF8"/><rect x="44" y="49" width="1" height="1" fill="#23404B"/><rect x="45" y="49" width="13" height="1" fill="#D3EEF8"/><rect x="58" y="49" width="1" height="1" fill="#23404B"/><rect x="59" y="49" width="9" height="1" fill="#D3EEF8"/><rect x="68" y="49" width="2" height="1" fill="#23404B"/><rect x="70" y="49" width="10" height="1" fill="#D3EEF8"/><rect x="0" y="50" width="8" height="1" fill="#FFFFFF"/><rect x="8" y="50" width="1" height="1" fill="#2E88A6"/><rect x="9" y="50" width="1" height="1" fill="#FFFFFF"/><rect x="10" y="50" width="1" height="1" fill="#23404B"/><rect x="11" y="50" width="7" height="1" fill="#FFFFFF"/><rect x="18" y="50" width="1" height="1" fill="#2E88A6"/><rect x="19" y="50" width="11" height="1" fill="#FFFFFF"/><rect x="30" y="50" width="1" height="1" fill="#2E88A6"/><rect x="31" y="50" width="13" height="1" fill="#FFFFFF"/><rect x="44" y="50" width="1" height="1" fill="#2E88A6"/><rect x="45" y="50" width="13" height="1" fill="#FFFFFF"/><rect x="58" y="50" width="1" height="1" fill="#2E88A6"/><rect x="59" y="50" width="11" height="1" fill="#FFFFFF"/><rect x="70" y="50" width="1" height="1" fill="#2E88A6"/><rect x="71" y="50" width="9" height="1" fill="#FFFFFF"/><rect x="0" y="51" width="8" height="1" fill="#58C0D8"/><rect x="8" y="51" width="1" height="1" fill="#EAFBFF"/><rect x="9" y="51" width="9" height="1" fill="#58C0D8"/><rect x="18" y="51" width="1" height="1" fill="#EAFBFF"/><rect x="19" y="51" width="11" height="1" fill="#58C0D8"/><rect x="30" y="51" width="1" height="1" fill="#EAFBFF"/><rect x="31" y="51" width="13" height="1" fill="#58C0D8"/><rect x="44" y="51" width="1" height="1" fill="#EAFBFF"/><rect x="45" y="51" width="13" height="1" fill="#58C0D8"/><rect x="58" y="51" width="1" height="1" fill="#EAFBFF"/><rect x="59" y="51" width="11" height="1" fill="#58C0D8"/><rect x="70" y="51" width="1" height="1" fill="#EAFBFF"/><rect x="71" y="51" width="9" height="1" fill="#58C0D8"/><rect x="0" y="52" width="80" height="1" fill="#58C0D8"/><rect x="0" y="53" width="80" height="1" fill="#58C0D8"/><rect x="0" y="54" width="80" height="1" fill="#58C0D8"/><rect x="0" y="55" width="80" height="1" fill="#58C0D8"/><rect x="0" y="56" width="80" height="1" fill="#58C0D8"/><rect x="0" y="57" width="1" height="1" fill="#338FAE"/><rect x="1" y="57" width="2" height="1" fill="#58C0D8"/><rect x="3" y="57" width="1" height="1" fill="#338FAE"/><rect x="4" y="57" width="2" height="1" fill="#58C0D8"/><rect x="6" y="57" width="1" height="1" fill="#338FAE"/><rect x="7" y="57" width="2" height="1" fill="#58C0D8"/><rect x="9" y="57" width="1" height="1" fill="#338FAE"/><rect x="10" y="57" width="2" height="1" fill="#58C0D8"/><rect x="12" y="57" width="1" height="1" fill="#338FAE"/><rect x="13" y="57" width="2" height="1" fill="#58C0D8"/><rect x="15" y="57" width="1" height="1" fill="#338FAE"/><rect x="16" y="57" width="2" height="1" fill="#58C0D8"/><rect x="18" y="57" width="1" height="1" fill="#338FAE"/><rect x="19" y="57" width="2" height="1" fill="#58C0D8"/><rect x="21" y="57" width="1" height="1" fill="#338FAE"/><rect x="22" y="57" width="2" height="1" fill="#58C0D8"/><rect x="24" y="57" width="1" height="1" fill="#338FAE"/><rect x="25" y="57" width="2" height="1" fill="#58C0D8"/><rect x="27" y="57" width="1" height="1" fill="#338FAE"/><rect x="28" y="57" width="2" height="1" fill="#58C0D8"/><rect x="30" y="57" width="1" height="1" fill="#338FAE"/><rect x="31" y="57" width="2" height="1" fill="#58C0D8"/><rect x="33" y="57" width="1" height="1" fill="#338FAE"/><rect x="34" y="57" width="2" height="1" fill="#58C0D8"/><rect x="36" y="57" width="1" height="1" fill="#338FAE"/><rect x="37" y="57" width="2" height="1" fill="#58C0D8"/><rect x="39" y="57" width="1" height="1" fill="#338FAE"/><rect x="40" y="57" width="2" height="1" fill="#58C0D8"/><rect x="42" y="57" width="1" height="1" fill="#338FAE"/><rect x="43" y="57" width="2" height="1" fill="#58C0D8"/><rect x="45" y="57" width="1" height="1" fill="#338FAE"/><rect x="46" y="57" width="2" height="1" fill="#58C0D8"/><rect x="48" y="57" width="1" height="1" fill="#338FAE"/><rect x="49" y="57" width="2" height="1" fill="#58C0D8"/><rect x="51" y="57" width="1" height="1" fill="#338FAE"/><rect x="52" y="57" width="2" height="1" fill="#58C0D8"/><rect x="54" y="57" width="1" height="1" fill="#338FAE"/><rect x="55" y="57" width="2" height="1" fill="#58C0D8"/><rect x="57" y="57" width="1" height="1" fill="#338FAE"/><rect x="58" y="57" width="2" height="1" fill="#58C0D8"/><rect x="60" y="57" width="1" height="1" fill="#338FAE"/><rect x="61" y="57" width="2" height="1" fill="#58C0D8"/><rect x="63" y="57" width="1" height="1" fill="#338FAE"/><rect x="64" y="57" width="2" height="1" fill="#58C0D8"/><rect x="66" y="57" width="1" height="1" fill="#338FAE"/><rect x="67" y="57" width="2" height="1" fill="#58C0D8"/><rect x="69" y="57" width="1" height="1" fill="#338FAE"/><rect x="70" y="57" width="2" height="1" fill="#58C0D8"/><rect x="72" y="57" width="1" height="1" fill="#338FAE"/><rect x="73" y="57" width="2" height="1" fill="#58C0D8"/><rect x="75" y="57" width="1" height="1" fill="#338FAE"/><rect x="76" y="57" width="2" height="1" fill="#58C0D8"/><rect x="78" y="57" width="1" height="1" fill="#338FAE"/><rect x="79" y="57" width="1" height="1" fill="#58C0D8"/><rect x="0" y="58" width="80" height="1" fill="#58C0D8"/><rect x="0" y="59" width="80" height="1" fill="#58C0D8"/><rect x="0" y="60" width="80" height="1" fill="#58C0D8"/><rect x="0" y="61" width="80" height="1" fill="#58C0D8"/><rect x="0" y="62" width="80" height="1" fill="#58C0D8"/><rect x="0" y="63" width="80" height="1" fill="#338FAE"/><rect x="0" y="64" width="80" height="1" fill="#338FAE"/><rect x="0" y="65" width="80" height="1" fill="#338FAE"/><rect x="0" y="66" width="80" height="1" fill="#338FAE"/><rect x="0" y="67" width="80" height="1" fill="#338FAE"/><rect x="0" y="68" width="80" height="1" fill="#338FAE"/><rect x="0" y="69" width="80" height="1" fill="#338FAE"/><rect x="0" y="70" width="80" height="1" fill="#338FAE"/><rect x="0" y="71" width="80" height="1" fill="#338FAE"/><rect x="0" y="72" width="80" height="1" fill="#338FAE"/><rect x="0" y="73" width="80" height="1" fill="#338FAE"/><rect x="0" y="74" width="80" height="1" fill="#338FAE"/><rect x="0" y="75" width="80" height="1" fill="#338FAE"/><rect x="0" y="76" width="80" height="1" fill="#338FAE"/><rect x="0" y="77" width="80" height="1" fill="#338FAE"/><rect x="0" y="78" width="80" height="1" fill="#338FAE"/><rect x="0" y="79" width="80" height="1" fill="#338FAE"/></svg>